<svg width="43" height="34" viewBox="0 0 43 34" fill="none" xmlns="http://www.w3.org/2000/svg">
<path d="M25.3455 7.99398C24.2805 6.95898 22.8855 6.39648 21.408 6.39648C21.348 6.39648 21.288 6.39648 21.228 6.39648C17.7405 6.50898 14.988 9.89148 15.9405 13.5065C16.233 14.609 16.9155 15.554 17.733 16.3565C18.3705 16.979 18.843 17.7665 19.1205 18.6365C19.233 18.989 19.563 19.2215 19.9305 19.2215H22.848C23.2155 19.2215 23.5455 18.989 23.658 18.644C23.943 17.7515 24.4455 16.934 25.143 16.289C25.8405 15.644 26.3955 14.9765 26.6955 14.129C27.5055 11.849 26.943 9.53898 25.3455 7.99398Z" fill="url(#paint0_linear_178_4246)"/>
<path d="M19.4205 22.4464C19.4205 23.0764 19.9305 23.5939 20.568 23.5939H22.2555C22.8855 23.5939 23.403 23.0839 23.403 22.4464V22.3339C23.403 21.8614 23.0205 21.4789 22.548 21.4789H20.2905C19.818 21.4789 19.4355 21.8614 19.4355 22.3339V22.4464H19.4205Z" fill="url(#paint1_linear_178_4246)"/>
<defs>
<linearGradient id="paint0_linear_178_4246" x1="21.4066" y1="6.39648" x2="21.4066" y2="23.5939" gradientUnits="userSpaceOnUse">
<stop stop-color="#4B68FF"/>
<stop offset="1" stop-color="#007AD5"/>
</linearGradient>
<linearGradient id="paint1_linear_178_4246" x1="21.4066" y1="6.39648" x2="21.4066" y2="23.5939" gradientUnits="userSpaceOnUse">
<stop stop-color="#4B68FF"/>
<stop offset="1" stop-color="#007AD5"/>
</linearGradient>
</defs>
</svg>
