<svg width="42" height="30" viewBox="0 0 42 30" fill="none" xmlns="http://www.w3.org/2000/svg">
<path fill-rule="evenodd" clip-rule="evenodd" d="M22.1095 11.9162L23.7385 11.4797L23.7542 11.4975C23.9731 11.4333 24.1598 11.29 24.2723 11.0951L25.1048 9.65319C25.3411 9.24399 25.8636 9.10399 26.2728 9.34024C26.5196 9.48274 26.6757 9.73739 26.7023 10.0212C26.7895 10.9203 26.616 11.8507 26.1285 12.6951C25.341 14.0591 23.943 14.8454 22.4803 14.9189C22.1975 14.9288 21.9521 15.0989 21.8133 15.3392L17.9283 22.0682C17.3621 23.049 16.1019 23.3867 15.1211 22.8204C14.1404 22.2542 13.8027 20.994 14.369 20.0132L18.254 13.2842C18.3927 13.0439 18.4108 12.7426 18.2844 12.4964C17.6167 11.1929 17.5988 9.58906 18.3863 8.22507C18.8738 7.3807 19.5965 6.75878 20.4215 6.39499C20.6806 6.27614 20.9792 6.28398 21.226 6.42648C21.6352 6.66273 21.7752 7.18524 21.539 7.59444L20.7102 9.02987C20.5977 9.22473 20.5631 9.46458 20.6208 9.67973L21.0573 11.3087C21.1808 11.7698 21.6485 12.0398 22.1095 11.9162ZM15.8971 21.5364C16.2558 21.7435 16.7145 21.6206 16.9216 21.2619C17.1287 20.9031 17.0058 20.4445 16.6471 20.2373C16.2884 20.0302 15.8297 20.1531 15.6226 20.5119C15.4155 20.8706 15.5384 21.3293 15.8971 21.5364Z" fill="url(#paint0_linear_178_4235)"/>
<defs>
<linearGradient id="paint0_linear_178_4235" x1="23.7461" y1="7.88148" x2="15.1211" y2="22.8204" gradientUnits="userSpaceOnUse">
<stop stop-color="#4B68FF"/>
<stop offset="1" stop-color="#007AD5"/>
</linearGradient>
</defs>
</svg>
