<svg width="7" height="15" viewBox="0 0 7 15" fill="none" xmlns="http://www.w3.org/2000/svg">
<path d="M1.7083 3.09275C1.7083 3.4382 1.7083 4.98012 1.7083 4.98012H0.355469V7.28802H1.7083V14.1463H4.48729V7.28821H6.35213C6.35213 7.28821 6.52678 6.18159 6.61144 4.97161C6.36872 4.97161 4.4978 4.97161 4.4978 4.97161C4.4978 4.97161 4.4978 3.62896 4.4978 3.39361C4.4978 3.15776 4.8008 2.84051 5.10027 2.84051C5.39918 2.84051 6.03005 2.84051 6.61437 2.84051C6.61437 2.52629 6.61437 1.44058 6.61437 0.437866C5.83432 0.437866 4.94688 0.437866 4.55571 0.437866C1.6396 0.437707 1.7083 2.74789 1.7083 3.09275Z" fill="#29C5F6"/>
</svg>
