<svg width="14" height="10" viewBox="0 0 14 10" fill="none" xmlns="http://www.w3.org/2000/svg">
<path d="M11.1817 1.16963C10.3467 0.794824 9.44983 0.518648 8.51172 0.370697C8.39832 0.567965 8.26431 0.834278 8.17153 1.05127C7.17157 0.903322 6.19222 0.903322 5.21288 1.05127C5.1201 0.834278 4.98608 0.567965 4.86238 0.370697C3.92427 0.528512 3.0274 0.794824 2.19238 1.1795C0.501723 3.61576 0.037824 6.00271 0.264619 8.3502C1.38829 9.14914 2.47072 9.64231 3.54284 9.95794C3.81087 9.61272 4.03767 9.23791 4.24384 8.85324C3.86242 8.71515 3.4913 8.53761 3.1408 8.34034C3.23358 8.27129 3.32635 8.20225 3.40883 8.13321C5.54276 9.08996 7.85195 9.08996 9.95496 8.13321C10.0477 8.20225 10.1302 8.27129 10.223 8.34034C9.87249 8.53761 9.50137 8.71515 9.11994 8.85324C9.32612 9.23791 9.55292 9.61272 9.82095 9.95794C10.8931 9.64231 11.9755 9.14914 13.0992 8.3502C13.3672 5.6279 12.6353 3.26068 11.1714 1.16963H11.1817ZM4.53249 6.91014C3.89334 6.91014 3.36759 6.33806 3.36759 5.64763C3.36759 4.95719 3.88303 4.37524 4.53249 4.37524C5.18195 4.37524 5.70771 4.94732 5.6974 5.64763C5.6974 6.34793 5.18195 6.91014 4.53249 6.91014ZM8.83129 6.91014C8.19214 6.91014 7.66639 6.33806 7.66639 5.64763C7.66639 4.95719 8.18183 4.37524 8.83129 4.37524C9.48075 4.37524 10.0065 4.94732 9.9962 5.64763C9.9962 6.34793 9.48075 6.91014 8.83129 6.91014Z" fill="#29C5F6"/>
</svg>
