<svg width="30" height="30" viewBox="0 0 30 30" fill="none" xmlns="http://www.w3.org/2000/svg">
<rect x="0.378906" y="0.186111" width="29.1243" height="29.1278" rx="2.90067" fill="black" fill-opacity="0.25"/>
<path d="M11.0862 8.7962C10.6778 8.9541 10.3293 9.16645 9.98632 9.51492C9.6433 9.85794 9.43095 10.2064 9.26761 10.6148C9.11515 11.0068 9.0117 11.4587 8.97903 12.123C8.94636 12.7873 8.94092 12.9942 8.94092 14.682C8.94092 16.3699 8.94636 16.5768 8.97903 17.2411C9.0117 17.8999 9.11515 18.3519 9.26761 18.7493C9.42551 19.1577 9.63785 19.5062 9.98632 19.8492C10.3293 20.1922 10.6778 20.4045 11.0862 20.5679C11.4782 20.7203 11.9301 20.8238 12.5944 20.8565C13.2532 20.8891 13.4656 20.8946 15.1535 20.8946C16.8413 20.8946 17.0482 20.8891 17.7125 20.8565C18.3713 20.8238 18.8233 20.7203 19.2207 20.5679C19.6291 20.41 19.9776 20.1976 20.3206 19.8492C20.6636 19.5062 20.876 19.1577 21.0393 18.7493C21.1918 18.3573 21.2952 17.9054 21.3279 17.2411C21.3605 16.5823 21.366 16.3699 21.366 14.682C21.366 12.9942 21.3605 12.7873 21.3279 12.123C21.2952 11.4587 21.1918 11.0122 21.0393 10.6148C20.8814 10.2064 20.669 9.85794 20.326 9.51492C19.983 9.17189 19.6345 8.95955 19.2262 8.7962C18.8341 8.64375 18.3822 8.5403 17.718 8.50763C17.0537 8.47496 16.8468 8.46951 15.1589 8.46951C13.471 8.46951 13.2641 8.47496 12.5998 8.50763C11.9356 8.53485 11.4836 8.64375 11.0916 8.7962H11.0862ZM17.6581 9.62381C18.2624 9.65104 18.5891 9.75449 18.8124 9.83616C19.1009 9.9505 19.3078 10.0812 19.5256 10.299C19.7434 10.5168 19.8741 10.7237 19.9884 11.0122C20.0756 11.23 20.1736 11.5622 20.2008 12.1665C20.2335 12.8199 20.2335 13.0159 20.2335 14.6766C20.2335 16.3373 20.228 16.5333 20.2008 17.1867C20.1736 17.791 20.0701 18.1177 19.9884 18.341C19.8741 18.6295 19.7434 18.8364 19.5256 19.0542C19.3078 19.272 19.1009 19.4027 18.8124 19.517C18.5946 19.6042 18.2624 19.7022 17.6581 19.7294C17.0047 19.7621 16.8087 19.7621 15.148 19.7621C13.4873 19.7621 13.2913 19.7566 12.6379 19.7294C12.0336 19.7022 11.7069 19.5987 11.4836 19.517C11.1951 19.4027 10.9882 19.272 10.7704 19.0542C10.5526 18.8364 10.4219 18.6295 10.3076 18.341C10.2204 18.1232 10.1224 17.791 10.0952 17.1867C10.0625 16.5333 10.0625 16.3373 10.0625 14.6766C10.0625 13.0159 10.068 12.8199 10.0952 12.1665C10.1224 11.5622 10.2259 11.2355 10.3076 11.0122C10.4219 10.7237 10.5526 10.5168 10.7704 10.299C10.9882 10.0812 11.1951 9.9505 11.4836 9.83616C11.7014 9.74904 12.0336 9.65104 12.6379 9.62381C13.2913 9.59114 13.4873 9.59114 15.148 9.59114C16.8087 9.59114 17.0047 9.59114 17.6581 9.62381V9.62381Z" fill="#29C5F6"/>
<path d="M11.9678 14.6766C11.9678 16.4353 13.3943 17.8618 15.153 17.8618C16.9117 17.8618 18.3382 16.4353 18.3382 14.6766C18.3382 12.9179 16.9117 11.4914 15.153 11.4914C13.3943 11.4914 11.9678 12.9179 11.9678 14.6766V14.6766ZM17.222 14.6766C17.222 15.82 16.2964 16.7456 15.153 16.7456C14.0096 16.7456 13.084 15.82 13.084 14.6766C13.084 13.5332 14.0096 12.6076 15.153 12.6076C16.2964 12.6076 17.222 13.5332 17.222 14.6766V14.6766Z" fill="#29C5F6"/>
<path d="M18.4691 12.1121C18.8811 12.1121 19.215 11.7781 19.215 11.3661C19.215 10.9542 18.8811 10.6202 18.4691 10.6202C18.0571 10.6202 17.7231 10.9542 17.7231 11.3661C17.7231 11.7781 18.0571 12.1121 18.4691 12.1121Z" fill="#29C5F6"/>
</svg>
