<svg width="15" height="12" viewBox="0 0 15 12" fill="none" xmlns="http://www.w3.org/2000/svg">
<path d="M13.3626 1.50812L14.5 0.423632V0.186111H10.5608L7.75352 7.15338L4.56025 0.186111H0.42998V0.423632L1.7585 2.01815C1.88838 2.13599 1.95518 2.30907 1.93848 2.48214V8.7479C1.9793 8.97437 1.90693 9.20452 1.74736 9.3684L0.25 11.1783V11.4122H4.4916V11.1747L2.99609 9.37024C2.91597 9.28951 2.85569 9.19152 2.81997 9.08389C2.78425 8.97627 2.77404 8.86192 2.79014 8.74974V3.32912L6.51406 11.4159H6.94639L10.1489 3.32912V9.77163C10.1489 9.94102 10.1489 9.97601 10.0376 10.0883L8.88535 11.1986V11.4361H14.474V11.1986L13.3626 10.1141C13.2661 10.0404 13.216 9.91709 13.2364 9.7974V1.82482C13.2268 1.76565 13.2335 1.70501 13.2557 1.64927C13.2779 1.59354 13.3148 1.54478 13.3626 1.50812V1.50812Z" fill="#29C5F6"/>
</svg>
