<svg width="30" height="23" viewBox="0 0 30 23" fill="none" xmlns="http://www.w3.org/2000/svg">
<path d="M25.5434 2.375C23.6563 1.49537 21.6294 0.847222 19.5093 0.5C19.2531 0.962963 18.9502 1.58796 18.7405 2.09722C16.4807 1.75 14.2674 1.75 12.0541 2.09722C11.8444 1.58796 11.5416 0.962963 11.262 0.5C9.14194 0.87037 7.11505 1.49537 5.22795 2.39815C1.40716 8.11574 0.358773 13.7176 0.871318 19.2269C3.41075 21.1019 5.85699 22.2593 8.27993 23C8.88566 22.1898 9.39821 21.3102 9.86416 20.4074C9.00215 20.0833 8.16344 19.6667 7.37133 19.2037C7.581 19.0417 7.79068 18.8796 7.97706 18.7176C12.7996 20.963 18.0183 20.963 22.771 18.7176C22.9807 18.8796 23.167 19.0417 23.3767 19.2037C22.5846 19.6667 21.7459 20.0833 20.8839 20.4074C21.3498 21.3102 21.8624 22.1898 22.4681 23C24.8911 22.2593 27.3373 21.1019 29.8767 19.2269C30.4825 12.838 28.8283 7.28241 25.5201 2.375H25.5434ZM10.5165 15.8472C9.07205 15.8472 7.88387 14.5046 7.88387 12.8843C7.88387 11.2639 9.04875 9.89815 10.5165 9.89815C11.9842 9.89815 13.1724 11.2407 13.1491 12.8843C13.1491 14.5278 11.9842 15.8472 10.5165 15.8472ZM20.2316 15.8472C18.7871 15.8472 17.5989 14.5046 17.5989 12.8843C17.5989 11.2639 18.7638 9.89815 20.2316 9.89815C21.6993 9.89815 22.8875 11.2407 22.8642 12.8843C22.8642 14.5278 21.6993 15.8472 20.2316 15.8472Z" fill="white"/>
</svg>
