<svg width="17" height="19" viewBox="0 0 17 19" fill="none" xmlns="http://www.w3.org/2000/svg">
<path d="M11.6976 4.81066C12.2834 4.22487 13.2331 4.22487 13.8189 4.81066C14.4047 5.39645 14.4047 6.34619 13.8189 6.93198L5.68198 15.0689C5.09619 15.6547 4.14645 15.6547 3.56066 15.0689C2.97487 14.4831 2.97487 13.5334 3.56066 12.9476L11.6976 4.81066Z" fill="#FF4FD8"/>
<path d="M13.8191 12.9476C14.4048 13.5334 14.4048 14.4831 13.8191 15.0689C13.2333 15.6547 12.2835 15.6547 11.6977 15.0689L3.5608 6.93198C2.97501 6.3462 2.97501 5.39645 3.5608 4.81066C4.14659 4.22488 5.09633 4.22488 5.68212 4.81066L13.8191 12.9476Z" fill="#FF4FD8"/>
</svg>
