<svg width="15" height="13" viewBox="0 0 15 13" fill="none" xmlns="http://www.w3.org/2000/svg">
<path d="M14.7878 2.34019C14.2734 2.56979 13.7182 2.72559 13.1385 2.79119C13.7263 2.43859 14.1836 1.8728 14.3959 1.20041C13.8406 1.52841 13.2283 1.7662 12.5751 1.8974C12.0525 1.33981 11.3095 0.987213 10.4849 0.987213C8.90092 0.987213 7.61904 2.2746 7.61904 3.86537C7.61904 4.09497 7.64354 4.30817 7.69253 4.52136C5.30839 4.39837 3.20187 3.25858 1.78119 1.51201C1.53624 1.9384 1.38927 2.43039 1.38927 2.95519C1.38927 3.95557 1.89549 4.83296 2.66299 5.34955C2.18943 5.33315 1.74853 5.20196 1.36478 4.98876V5.02156C1.36478 6.41554 2.35272 7.57992 3.66726 7.84232C3.43048 7.90792 3.17737 7.94072 2.9161 7.94072C2.72831 7.94072 2.54868 7.92432 2.37722 7.89152C2.74464 9.0313 3.7979 9.86769 5.05529 9.89229C4.0755 10.6631 2.83445 11.1223 1.49542 11.1223C1.2668 11.1223 1.03819 11.1059 0.80957 11.0813C2.07512 11.9013 3.58561 12.3769 5.20225 12.3769C10.4767 12.3769 13.3589 7.98992 13.3589 4.18517C13.3589 4.06217 13.3589 3.93917 13.3508 3.81617C13.9141 3.41438 14.3959 2.90599 14.7796 2.32379" fill="#29C5F6"/>
</svg>
